<svg xmlns="http://www.w3.org/2000/svg" viewBox="0 0 400 480" fill="none">
  <!-- PH.ST Logo - Clean bold typography -->
  <defs>
    <style>
      .letter { fill: #f5f0e8; }
    </style>
  </defs>

  <!-- Row 1: P and H -->
  <!-- P -->
  <path class="letter" d="M20,20 L20,230 L70,230 L70,145 L130,145 C170,145 200,120 200,82.5 C200,45 170,20 130,20 Z M70,65 L120,65 C145,65 155,75 155,82.5 C155,90 145,100 120,100 L70,100 Z"/>

  <!-- H -->
  <path class="letter" d="M215,20 L215,230 L265,230 L265,145 L340,145 L340,230 L390,230 L390,20 L340,20 L340,100 L265,100 L265,20 Z"/>

  <!-- Row 2: .S and T -->
  <!-- Dot -->
  <rect class="letter" x="20" y="400" width="45" height="45" rx="4"/>

  <!-- S -->
  <path class="letter" d="M95,355 C95,340 108,330 130,330 C155,330 168,342 170,358 L215,348 C210,315 185,290 130,290 C80,290 50,318 50,352 C50,425 175,395 175,430 C175,445 162,458 135,458 C108,458 92,444 90,425 L45,435 C50,470 78,498 135,498 C190,498 222,468 222,432 C222,358 95,390 95,355 Z"/>

  <!-- T -->
  <path class="letter" d="M240,290 L240,335 L295,335 L295,490 L345,490 L345,335 L400,335 L400,290 Z"/>
</svg>
